<?xml version="1.0" encoding="UTF-8" standalone="no"?>
<svg
   xmlns:dc="http://purl.org/dc/elements/1.1/"
   xmlns:cc="http://creativecommons.org/ns#"
   xmlns:rdf="http://www.w3.org/1999/02/22-rdf-syntax-ns#"
   xmlns:svg="http://www.w3.org/2000/svg"
   xmlns="http://www.w3.org/2000/svg"
   height="10mm"
   width="32mm"
   xml:space="preserve"
   enable-background="new 0 0 48 48"
   viewBox="0 0 120.94488 37.795276"
   y="0px"
   x="0px"
   id="Layer_1"
   version="1.1"><metadata
   id="metadata297"><rdf:RDF><cc:Work
       rdf:about=""><dc:format>image/svg+xml</dc:format><dc:type
         rdf:resource="http://purl.org/dc/dcmitype/StillImage" /><dc:title></dc:title></cc:Work></rdf:RDF></metadata><defs
   id="defs295" />

















































































































































<text
   id="text3041"
   y="-15.101832"
   x="9.5789175"
   style="font-style:normal;font-variant:normal;font-weight:600;font-stretch:normal;font-size:16px;line-height:1.25;font-family:MoneroGothic;-inkscape-font-specification:'MoneroGothic Semi-Bold';letter-spacing:0px;word-spacing:0px;fill:#000000;fill-opacity:1;stroke:none"
   xml:space="preserve"><tspan
     y="-0.57573599"
     x="9.5789175"
     id="tspan3039" /></text>


<g
   transform="translate(1.0492182,-0.00512941)"
   id="g1285"><g
     id="g1236"><path
       id="text1106"
       d="M 15.525391,1.6484375 V 14.148438 h 2 v 2 h -2 v 8 h 2 v 2 h -2 v 9.96289 h 11.578125 c 3.340799,0 5.931231,-0.384344 7.832031,-1.152344 1.9008,-0.768 3.456416,-1.966781 4.666015,-3.550781 1.152001,-1.584 1.785157,-3.360125 1.785157,-5.328125 0,-2.016 -0.633156,-3.744422 -1.785157,-5.232422 -1.151999,-1.488 -2.995856,-2.73614 -5.472656,-3.74414 1.4976,-0.912 2.535363,-1.920563 3.226563,-2.976563 0.6912,-1.056 1.037109,-2.255609 1.037109,-3.599609 0,-2.0160012 -0.748494,-3.7444222 -2.246094,-5.2324221 -1.4976,-1.488 -3.4558,-2.4943125 -5.875,-3.0703125 -1.728,-0.384 -4.494281,-0.5761719 -8.238281,-0.5761719 z m 7.890625,6.2382813 h 2.015625 c 1.7856,0 3.111603,0.3369378 4.033203,0.9609374 0.864,0.6240001 1.324218,1.4889218 1.324218,2.5449218 0,1.152 -0.461212,2.062375 -1.382812,2.734375 -0.9216,0.672 -2.360919,1.007813 -4.261719,1.007813 h -1.728515 z m -5.390625,1.2617187 h 2 v 2.0000005 h -2 z m 2.5,7.5000005 h 2 v 2 h -2 z m 2.890625,4.390624 h 1.613281 c 3.1104,0 5.298247,0.432875 6.623047,1.296876 1.3248,0.863998 2.017578,2.063906 2.017578,3.503906 0,1.344 -0.576516,2.351437 -1.728516,3.023437 -1.152,0.672 -3.340806,1.007813 -6.566406,1.007813 h -1.958984 z m -5.390625,0.609376 h 2 v 2 h -2 z m 0,10 h 2 v 2 h -2 z"
       style="font-style:normal;font-variant:normal;font-weight:600;font-stretch:normal;font-size:52.58136368px;line-height:1.25;font-family:MoneroGothic;-inkscape-font-specification:'MoneroGothic, Semi-Bold';font-variant-ligatures:normal;font-variant-caps:normal;font-variant-numeric:normal;font-feature-settings:normal;text-align:start;letter-spacing:0px;word-spacing:0px;writing-mode:lr-tb;text-anchor:start;fill:#aa0000;fill-opacity:1;stroke:none;stroke-width:1" /><rect
       y="1.6476312"
       x="13.025166"
       height="2"
       width="2"
       id="rect1108"
       style="opacity:1;fill:#aa0000;fill-opacity:1;fill-rule:evenodd;stroke:none;stroke-width:0.1;stroke-linecap:butt;stroke-linejoin:miter;stroke-miterlimit:4;stroke-dasharray:none;stroke-dashoffset:0;stroke-opacity:1" /><rect
       y="1.6476312"
       x="10.525166"
       height="2"
       width="2"
       id="rect1108-9"
       style="opacity:1;fill:#aa0000;fill-opacity:1;fill-rule:evenodd;stroke:none;stroke-width:0.1;stroke-linecap:butt;stroke-linejoin:miter;stroke-miterlimit:4;stroke-dasharray:none;stroke-dashoffset:0;stroke-opacity:1" /><rect
       y="1.6476312"
       x="5.525166"
       height="2"
       width="2"
       id="rect1108-2"
       style="opacity:1;fill:#aa0000;fill-opacity:1;fill-rule:evenodd;stroke:none;stroke-width:0.1;stroke-linecap:butt;stroke-linejoin:miter;stroke-miterlimit:4;stroke-dasharray:none;stroke-dashoffset:0;stroke-opacity:1" /><rect
       y="1.6476302"
       x="0.52516603"
       height="2"
       width="2"
       id="rect1108-96"
       style="opacity:1;fill:#aa0000;fill-opacity:1;fill-rule:evenodd;stroke:none;stroke-width:0.1;stroke-linecap:butt;stroke-linejoin:miter;stroke-miterlimit:4;stroke-dasharray:none;stroke-dashoffset:0;stroke-opacity:1" /><rect
       y="4.1476321"
       x="13.025166"
       height="2"
       width="2"
       id="rect1108-1"
       style="opacity:1;fill:#aa0000;fill-opacity:1;fill-rule:evenodd;stroke:none;stroke-width:0.1;stroke-linecap:butt;stroke-linejoin:miter;stroke-miterlimit:4;stroke-dasharray:none;stroke-dashoffset:0;stroke-opacity:1" /><rect
       y="4.1476321"
       x="8.0251656"
       height="2"
       width="2"
       id="rect1108-0-0"
       style="opacity:1;fill:#aa0000;fill-opacity:1;fill-rule:evenodd;stroke:none;stroke-width:0.1;stroke-linecap:butt;stroke-linejoin:miter;stroke-miterlimit:4;stroke-dasharray:none;stroke-dashoffset:0;stroke-opacity:1" /><rect
       y="4.1476321"
       x="3.025166"
       height="2"
       width="2"
       id="rect1108-01-3"
       style="opacity:1;fill:#aa0000;fill-opacity:1;fill-rule:evenodd;stroke:none;stroke-width:0.1;stroke-linecap:butt;stroke-linejoin:miter;stroke-miterlimit:4;stroke-dasharray:none;stroke-dashoffset:0;stroke-opacity:1" /><rect
       y="6.6476331"
       x="13.025166"
       height="2"
       width="2"
       id="rect1108-7"
       style="opacity:1;fill:#aa0000;fill-opacity:1;fill-rule:evenodd;stroke:none;stroke-width:0.1;stroke-linecap:butt;stroke-linejoin:miter;stroke-miterlimit:4;stroke-dasharray:none;stroke-dashoffset:0;stroke-opacity:1" /><rect
       y="6.6476331"
       x="10.525166"
       height="2"
       width="2"
       id="rect1108-9-4"
       style="opacity:1;fill:#aa0000;fill-opacity:1;fill-rule:evenodd;stroke:none;stroke-width:0.1;stroke-linecap:butt;stroke-linejoin:miter;stroke-miterlimit:4;stroke-dasharray:none;stroke-dashoffset:0;stroke-opacity:1" /><rect
       y="6.6476331"
       x="5.525166"
       height="2"
       width="2"
       id="rect1108-2-5"
       style="opacity:1;fill:#aa0000;fill-opacity:1;fill-rule:evenodd;stroke:none;stroke-width:0.1;stroke-linecap:butt;stroke-linejoin:miter;stroke-miterlimit:4;stroke-dasharray:none;stroke-dashoffset:0;stroke-opacity:1" /><rect
       y="9.1476345"
       x="5.525166"
       height="2"
       width="2"
       id="rect1108-2-7-4"
       style="opacity:1;fill:#aa0000;fill-opacity:1;fill-rule:evenodd;stroke:none;stroke-width:0.1;stroke-linecap:butt;stroke-linejoin:miter;stroke-miterlimit:4;stroke-dasharray:none;stroke-dashoffset:0;stroke-opacity:1" /><rect
       y="9.1476336"
       x="0.52516603"
       height="2"
       width="2"
       id="rect1108-96-1-2"
       style="opacity:1;fill:#aa0000;fill-opacity:1;fill-rule:evenodd;stroke:none;stroke-width:0.1;stroke-linecap:butt;stroke-linejoin:miter;stroke-miterlimit:4;stroke-dasharray:none;stroke-dashoffset:0;stroke-opacity:1" /><rect
       y="11.647636"
       x="13.025166"
       height="2"
       width="2"
       id="rect1108-07"
       style="opacity:1;fill:#aa0000;fill-opacity:1;fill-rule:evenodd;stroke:none;stroke-width:0.1;stroke-linecap:butt;stroke-linejoin:miter;stroke-miterlimit:4;stroke-dasharray:none;stroke-dashoffset:0;stroke-opacity:1" /><rect
       y="11.647636"
       x="8.0251656"
       height="2"
       width="2"
       id="rect1108-0-1"
       style="opacity:1;fill:#aa0000;fill-opacity:1;fill-rule:evenodd;stroke:none;stroke-width:0.1;stroke-linecap:butt;stroke-linejoin:miter;stroke-miterlimit:4;stroke-dasharray:none;stroke-dashoffset:0;stroke-opacity:1" /><rect
       y="11.647636"
       x="3.025166"
       height="2"
       width="2"
       id="rect1108-01-1"
       style="opacity:1;fill:#aa0000;fill-opacity:1;fill-rule:evenodd;stroke:none;stroke-width:0.1;stroke-linecap:butt;stroke-linejoin:miter;stroke-miterlimit:4;stroke-dasharray:none;stroke-dashoffset:0;stroke-opacity:1" /><rect
       y="14.147636"
       x="13.025166"
       height="2"
       width="2"
       id="rect1108-1-7"
       style="opacity:1;fill:#aa0000;fill-opacity:1;fill-rule:evenodd;stroke:none;stroke-width:0.1;stroke-linecap:butt;stroke-linejoin:miter;stroke-miterlimit:4;stroke-dasharray:none;stroke-dashoffset:0;stroke-opacity:1" /><rect
       y="14.147636"
       x="10.525166"
       height="2"
       width="2"
       id="rect1108-9-2-2"
       style="opacity:1;fill:#aa0000;fill-opacity:1;fill-rule:evenodd;stroke:none;stroke-width:0.1;stroke-linecap:butt;stroke-linejoin:miter;stroke-miterlimit:4;stroke-dasharray:none;stroke-dashoffset:0;stroke-opacity:1" /><rect
       y="14.147636"
       x="8.0251656"
       height="2"
       width="2"
       id="rect1108-0-0-64"
       style="opacity:1;fill:#aa0000;fill-opacity:1;fill-rule:evenodd;stroke:none;stroke-width:0.1;stroke-linecap:butt;stroke-linejoin:miter;stroke-miterlimit:4;stroke-dasharray:none;stroke-dashoffset:0;stroke-opacity:1" /><rect
       y="14.147636"
       x="5.525166"
       height="2"
       width="2"
       id="rect1108-2-7-5"
       style="opacity:1;fill:#aa0000;fill-opacity:1;fill-rule:evenodd;stroke:none;stroke-width:0.1;stroke-linecap:butt;stroke-linejoin:miter;stroke-miterlimit:4;stroke-dasharray:none;stroke-dashoffset:0;stroke-opacity:1" /><rect
       y="14.147636"
       x="0.52516603"
       height="2"
       width="2"
       id="rect1108-96-1-0"
       style="opacity:1;fill:#aa0000;fill-opacity:1;fill-rule:evenodd;stroke:none;stroke-width:0.1;stroke-linecap:butt;stroke-linejoin:miter;stroke-miterlimit:4;stroke-dasharray:none;stroke-dashoffset:0;stroke-opacity:1" /><rect
       y="16.647638"
       x="10.525166"
       height="2"
       width="2"
       id="rect1108-9-4-9"
       style="opacity:1;fill:#aa0000;fill-opacity:1;fill-rule:evenodd;stroke:none;stroke-width:0.1;stroke-linecap:butt;stroke-linejoin:miter;stroke-miterlimit:4;stroke-dasharray:none;stroke-dashoffset:0;stroke-opacity:1" /><rect
       y="16.647638"
       x="8.0251656"
       height="2"
       width="2"
       id="rect1108-0-8-9"
       style="opacity:1;fill:#aa0000;fill-opacity:1;fill-rule:evenodd;stroke:none;stroke-width:0.1;stroke-linecap:butt;stroke-linejoin:miter;stroke-miterlimit:4;stroke-dasharray:none;stroke-dashoffset:0;stroke-opacity:1" /><rect
       y="19.147638"
       x="13.025166"
       height="2"
       width="2"
       id="rect1108-1-0-3"
       style="opacity:1;fill:#aa0000;fill-opacity:1;fill-rule:evenodd;stroke:none;stroke-width:0.1;stroke-linecap:butt;stroke-linejoin:miter;stroke-miterlimit:4;stroke-dasharray:none;stroke-dashoffset:0;stroke-opacity:1" /><rect
       y="19.147638"
       x="10.525166"
       height="2"
       width="2"
       id="rect1108-9-2-6-7"
       style="opacity:1;fill:#aa0000;fill-opacity:1;fill-rule:evenodd;stroke:none;stroke-width:0.1;stroke-linecap:butt;stroke-linejoin:miter;stroke-miterlimit:4;stroke-dasharray:none;stroke-dashoffset:0;stroke-opacity:1" /><rect
       y="21.64764"
       x="8.0251656"
       height="2"
       width="2"
       id="rect1108-0-9"
       style="opacity:1;fill:#aa0000;fill-opacity:1;fill-rule:evenodd;stroke:none;stroke-width:0.1;stroke-linecap:butt;stroke-linejoin:miter;stroke-miterlimit:4;stroke-dasharray:none;stroke-dashoffset:0;stroke-opacity:1" /><rect
       y="21.64764"
       x="5.525166"
       height="2"
       width="2"
       id="rect1108-2-78"
       style="opacity:1;fill:#aa0000;fill-opacity:1;fill-rule:evenodd;stroke:none;stroke-width:0.1;stroke-linecap:butt;stroke-linejoin:miter;stroke-miterlimit:4;stroke-dasharray:none;stroke-dashoffset:0;stroke-opacity:1" /><rect
       y="21.647638"
       x="0.52516603"
       height="2"
       width="2"
       id="rect1108-96-33"
       style="opacity:1;fill:#aa0000;fill-opacity:1;fill-rule:evenodd;stroke:none;stroke-width:0.1;stroke-linecap:butt;stroke-linejoin:miter;stroke-miterlimit:4;stroke-dasharray:none;stroke-dashoffset:0;stroke-opacity:1" /><rect
       y="24.14764"
       x="13.025166"
       height="2"
       width="2"
       id="rect1108-1-3"
       style="opacity:1;fill:#aa0000;fill-opacity:1;fill-rule:evenodd;stroke:none;stroke-width:0.1;stroke-linecap:butt;stroke-linejoin:miter;stroke-miterlimit:4;stroke-dasharray:none;stroke-dashoffset:0;stroke-opacity:1" /><rect
       y="24.14764"
       x="8.0251656"
       height="2"
       width="2"
       id="rect1108-0-0-9"
       style="opacity:1;fill:#aa0000;fill-opacity:1;fill-rule:evenodd;stroke:none;stroke-width:0.1;stroke-linecap:butt;stroke-linejoin:miter;stroke-miterlimit:4;stroke-dasharray:none;stroke-dashoffset:0;stroke-opacity:1" /><rect
       y="26.647642"
       x="10.525166"
       height="2"
       width="2"
       id="rect1108-9-4-90"
       style="opacity:1;fill:#aa0000;fill-opacity:1;fill-rule:evenodd;stroke:none;stroke-width:0.1;stroke-linecap:butt;stroke-linejoin:miter;stroke-miterlimit:4;stroke-dasharray:none;stroke-dashoffset:0;stroke-opacity:1" /><rect
       y="29.147642"
       x="13.025166"
       height="2"
       width="2"
       id="rect1108-1-0-7"
       style="opacity:1;fill:#aa0000;fill-opacity:1;fill-rule:evenodd;stroke:none;stroke-width:0.1;stroke-linecap:butt;stroke-linejoin:miter;stroke-miterlimit:4;stroke-dasharray:none;stroke-dashoffset:0;stroke-opacity:1" /><rect
       y="29.147642"
       x="10.525166"
       height="2"
       width="2"
       id="rect1108-9-2-6-1"
       style="opacity:1;fill:#aa0000;fill-opacity:1;fill-rule:evenodd;stroke:none;stroke-width:0.1;stroke-linecap:butt;stroke-linejoin:miter;stroke-miterlimit:4;stroke-dasharray:none;stroke-dashoffset:0;stroke-opacity:1" /><rect
       y="29.147642"
       x="5.525166"
       height="2"
       width="2"
       id="rect1108-2-7-4-80"
       style="opacity:1;fill:#aa0000;fill-opacity:1;fill-rule:evenodd;stroke:none;stroke-width:0.1;stroke-linecap:butt;stroke-linejoin:miter;stroke-miterlimit:4;stroke-dasharray:none;stroke-dashoffset:0;stroke-opacity:1" /><rect
       y="29.147642"
       x="3.025166"
       height="2"
       width="2"
       id="rect1108-01-3-6-9"
       style="opacity:1;fill:#aa0000;fill-opacity:1;fill-rule:evenodd;stroke:none;stroke-width:0.1;stroke-linecap:butt;stroke-linejoin:miter;stroke-miterlimit:4;stroke-dasharray:none;stroke-dashoffset:0;stroke-opacity:1" /><rect
       y="31.647642"
       x="13.025166"
       height="2"
       width="2"
       id="rect1108-07-2"
       style="opacity:1;fill:#aa0000;fill-opacity:1;fill-rule:evenodd;stroke:none;stroke-width:0.1;stroke-linecap:butt;stroke-linejoin:miter;stroke-miterlimit:4;stroke-dasharray:none;stroke-dashoffset:0;stroke-opacity:1" /><rect
       y="31.647642"
       x="8.0251656"
       height="2"
       width="2"
       id="rect1108-0-1-3"
       style="opacity:1;fill:#aa0000;fill-opacity:1;fill-rule:evenodd;stroke:none;stroke-width:0.1;stroke-linecap:butt;stroke-linejoin:miter;stroke-miterlimit:4;stroke-dasharray:none;stroke-dashoffset:0;stroke-opacity:1" /><rect
       y="31.647642"
       x="3.025166"
       height="2"
       width="2"
       id="rect1108-01-1-1"
       style="opacity:1;fill:#aa0000;fill-opacity:1;fill-rule:evenodd;stroke:none;stroke-width:0.1;stroke-linecap:butt;stroke-linejoin:miter;stroke-miterlimit:4;stroke-dasharray:none;stroke-dashoffset:0;stroke-opacity:1" /><rect
       y="31.647642"
       x="0.52516603"
       height="2"
       width="2"
       id="rect1108-96-3-2"
       style="opacity:1;fill:#aa0000;fill-opacity:1;fill-rule:evenodd;stroke:none;stroke-width:0.1;stroke-linecap:butt;stroke-linejoin:miter;stroke-miterlimit:4;stroke-dasharray:none;stroke-dashoffset:0;stroke-opacity:1" /><rect
       y="34.147644"
       x="13.025166"
       height="2"
       width="2"
       id="rect1108-1-7-0"
       style="opacity:1;fill:#aa0000;fill-opacity:1;fill-rule:evenodd;stroke:none;stroke-width:0.1;stroke-linecap:butt;stroke-linejoin:miter;stroke-miterlimit:4;stroke-dasharray:none;stroke-dashoffset:0;stroke-opacity:1" /><rect
       y="34.147644"
       x="10.525166"
       height="2"
       width="2"
       id="rect1108-9-2-2-2"
       style="opacity:1;fill:#aa0000;fill-opacity:1;fill-rule:evenodd;stroke:none;stroke-width:0.1;stroke-linecap:butt;stroke-linejoin:miter;stroke-miterlimit:4;stroke-dasharray:none;stroke-dashoffset:0;stroke-opacity:1" /><rect
       y="34.147644"
       x="5.525166"
       height="2"
       width="2"
       id="rect1108-2-7-5-7"
       style="opacity:1;fill:#aa0000;fill-opacity:1;fill-rule:evenodd;stroke:none;stroke-width:0.1;stroke-linecap:butt;stroke-linejoin:miter;stroke-miterlimit:4;stroke-dasharray:none;stroke-dashoffset:0;stroke-opacity:1" /><rect
       y="34.14764"
       x="0.52516603"
       height="2"
       width="2"
       id="rect1108-96-1-0-1"
       style="opacity:1;fill:#aa0000;fill-opacity:1;fill-rule:evenodd;stroke:none;stroke-width:0.1;stroke-linecap:butt;stroke-linejoin:miter;stroke-miterlimit:4;stroke-dasharray:none;stroke-dashoffset:0;stroke-opacity:1" /></g><g
     id="g1133"><path
       id="path187"
       d="m 72.867146,36.725342 c -1.198361,-0.523079 -2.909552,-2.338354 -5.032355,-5.338451 -0.870025,-1.229576 -1.369135,-2.000063 -1.431501,-2.209835 -0.0689,-0.231754 0.125466,-0.287501 1.002413,-0.287501 1.995472,0 3.946158,0.583181 5.475633,1.637007 0.747146,0.514793 1.673093,1.514085 1.974661,2.131076 0.37975,0.776941 0.515826,1.356468 0.51677,2.200826 9.42e-4,0.835108 -0.122991,1.249142 -0.485573,1.622324 -0.427537,0.440034 -1.323663,0.548522 -2.020048,0.244554 z M 54.453953,35.963118 c -0.577004,-0.278197 -1.072816,-1.044746 -0.994427,-1.537436 0.07205,-0.45289 0.683697,-1.352984 1.069198,-1.573441 0.195026,-0.111531 0.230653,-0.115025 0.282623,-0.02772 0.0327,0.05494 0.0599,0.195283 0.06043,0.311875 0.0012,0.239649 0.125016,0.401892 0.353499,0.462788 0.475508,0.126732 2.278795,-1.179146 2.979513,-2.157658 0.399146,-0.557388 0.924701,-1.700232 1.188894,-2.585309 0.224703,-0.752774 0.461636,-1.767217 0.422465,-1.808813 -0.01427,-0.01515 -0.235063,0.02089 -0.490645,0.08014 -0.255581,0.05924 -0.793504,0.123763 -1.195384,0.143395 -0.627362,0.03064 -0.791666,0.01583 -1.161878,-0.10481 -0.655808,-0.213697 -1.90709,-1.011323 -1.90709,-1.215668 0,-0.03391 0.100171,-0.179383 0.222604,-0.323288 0.419865,-0.49351 2.232857,-1.64627 4.437471,-2.821494 0.645235,-0.343958 1.125025,-0.640022 1.14355,-0.705649 0.06811,-0.2413 0.347033,-1.961825 0.472419,-2.914115 0.07244,-0.550206 0.146028,-1.093889 0.163522,-1.208182 l 0.03181,-0.207806 -0.393793,-0.07904 c -0.707562,-0.14201 -1.510657,-0.407838 -2.266255,-0.750138 -0.408092,-0.18487 -0.750224,-0.325555 -0.760295,-0.312626 -0.01007,0.01293 -0.09737,0.368635 -0.194003,0.790457 -0.211811,0.924636 -0.544182,2.015152 -0.789008,2.588747 -0.327061,0.766264 -0.724667,1.31279 -1.523376,2.09396 -2.155057,2.107723 -5.303404,5.811259 -6.530151,7.681692 -1.059903,1.616039 -1.345545,1.878833 -1.985709,1.826875 -0.441635,-0.03585 -1.02278,-0.333739 -1.268712,-0.650343 -0.35628,-0.458664 -0.680416,-1.746488 -0.68217,-2.710339 -0.0014,-0.761907 0.09051,-0.890416 0.973601,-1.361499 0.773778,-0.412771 1.206904,-0.697081 1.958815,-1.285794 l 0.515433,-0.403564 0.15521,-0.705338 c 0.08536,-0.387938 0.242484,-1.275553 0.349151,-1.972483 0.106669,-0.696929 0.207172,-1.351096 0.223344,-1.453709 l 0.0294,-0.186564 -0.265945,0.174662 c -0.557195,0.365943 -1.26706,0.698656 -1.490628,0.698656 -0.477656,0 -1.902786,-0.883794 -2.749648,-1.705195 -0.498144,-0.483169 -1.192818,-1.38669 -1.370687,-1.782772 -0.104972,-0.233758 -0.105366,-0.256433 -0.0063,-0.36166 0.09909,-0.105228 0.134722,-0.104598 0.568239,0.01003 0.705192,0.186474 1.092839,0.132147 1.807653,-0.253339 0.522723,-0.281891 3.386949,-2.263221 3.841733,-2.657518 0.174785,-0.151541 0.175768,-0.156973 0.247333,-1.367574 0.08174,-1.382697 0.01526,-2.409406 -0.19763,-3.052635 -0.06935,-0.209536 -0.266696,-0.574372 -0.43854,-0.8107492 -0.37675,-0.51823 -0.539062,-0.93249 -0.48481,-1.237348 0.154141,-0.866205 1.042728,-1.158147 2.110639,-0.693441 0.565274,0.245984 1.457718,0.780556 1.965461,1.177311 0.967662,0.756142 1.109386,1.5548772 0.64434,3.6314642 -0.08215,0.366802 -0.143273,0.673372 -0.13584,0.681264 0.0074,0.0079 0.207843,-0.01777 0.445361,-0.05704 0.606228,-0.100223 1.182573,-0.05122 1.398414,0.118896 0.249137,0.196357 0.499648,0.602549 0.625033,1.01346 l 0.108644,0.356047 -0.184428,0.374052 c -0.216429,0.438962 -0.902762,1.195709 -1.914564,2.110983 -0.397237,0.359339 -0.795701,0.721029 -0.885472,0.803759 -0.182444,0.168129 -0.175076,0.119218 -0.336751,2.234787 -0.05186,0.678587 -0.109203,1.391356 -0.12743,1.583927 -0.01823,0.192574 -0.0096,0.350131 0.01925,0.350131 0.088,0 1.699455,-1.183595 2.372308,-1.742432 1.244956,-1.033989 1.859845,-1.864196 2.825604,-3.815046 0.623777,-1.260039 0.766239,-1.403478 1.691182,-1.702763 0.791332,-0.256053 1.80418,-0.70558 2.337186,-1.037303 l 0.381087,-0.237174 0.07003,-0.427017 c 0.07341,-0.447642 0.407511,-3.230961 0.477321,-3.9764562 0.03368,-0.359628 0.0029,-0.609642 -0.180727,-1.467219 -0.412908,-1.928568 -0.613211,-3.460656 -0.626798,-4.794297 -0.01104,-1.082976 0.06841,-1.447223 0.395227,-1.812039 0.286997,-0.32037204 0.509615,-0.38437104 0.809239,-0.23264704 0.655532,0.33195004 2.37201,2.01635204 3.06161,3.00439704 0.204877,0.293545 0.453769,0.726007 0.553092,0.961029 0.168094,0.397748 0.178275,0.469248 0.147155,1.033536 -0.02034,0.368739 -0.0863,0.762983 -0.168392,1.006375 -0.265993,0.788653 -1.204798,5.1147352 -1.127715,5.1965902 0.01514,0.01608 0.436974,-0.10632 0.937417,-0.271984 1.632938,-0.54056 2.537999,-0.756416 3.169835,-0.756 0.827316,5.33e-4 0.998106,0.06857 1.479205,0.589145 0.60054,0.649821 1.583691,2.077076 1.927698,2.798465 0.267516,0.56099 0.301252,0.681541 0.318293,1.137369 0.01572,0.420444 -0.0033,0.547867 -0.108753,0.726507 -0.130402,0.221022 -0.181028,0.262103 -1.16606,0.9462 -0.668631,0.464361 -1.365584,1.191714 -1.831064,1.910936 -0.184626,0.28527 -0.335684,0.543186 -0.335684,0.573146 0,0.02996 0.247292,0.05461 0.549538,0.05478 0.815845,5.33e-4 2.500873,0.124033 3.100839,0.227404 1.051623,0.181188 1.716228,0.594218 2.798702,1.739299 0.72195,0.763704 0.845181,0.98053 0.721327,1.269188 -0.08922,0.207948 -0.705499,0.721181 -1.141195,0.950389 -0.312231,0.164255 -0.408791,0.181299 -1.004868,0.177369 -0.525849,-0.0035 -0.812127,-0.04646 -1.413097,-0.212234 -1.084107,-0.29904 -1.851122,-0.375138 -3.328626,-0.330238 -2.45047,0.07447 -4.164264,0.514922 -5.369766,1.380058 -0.498158,0.357506 -0.706396,0.463404 -1.444405,0.734537 l -0.659349,0.242236 -0.107524,0.862326 c -0.520509,4.174481 -1.091164,6.154394 -2.018932,7.004764 -0.53476,0.490147 -2.582171,1.417389 -4.269094,1.933408 -0.881804,0.269735 -1.485002,0.300802 -1.905361,0.09813 z m 9.498702,-14.966576 c 0.239212,-0.08623 0.713258,-0.227894 1.053438,-0.314818 l 0.61851,-0.158044 0.504799,-0.602192 c 0.563145,-0.671796 1.178583,-1.513609 1.178583,-1.612097 0,-0.03539 -0.100244,-0.167519 -0.222765,-0.293619 -0.122519,-0.126102 -0.466593,-0.551479 -0.764604,-0.945279 -0.346044,-0.457271 -0.566252,-0.695725 -0.609394,-0.659887 -0.45527,0.378214 -0.759726,0.592391 -1.081985,0.761145 l -0.386392,0.202339 -0.161103,0.639144 c -0.154408,0.612569 -0.603415,2.883547 -0.604362,3.056717 -5.03e-4,0.105191 -0.03492,0.110497 0.475275,-0.07341 z m 4.530713,-4.428281 c 1.273814,-2.048688 1.549058,-2.647938 1.458305,-3.174947 -0.05515,-0.32023 -0.1926,-0.443233 -0.494645,-0.44264 -0.288951,5.33e-4 -0.490688,0.147344 -0.824391,0.599787 -0.423473,0.574157 -1.259364,1.425059 -2.308406,2.349864 l -0.206883,0.182382 0.20557,0.317804 c 0.212869,0.329091 1.230859,1.484912 1.307836,1.484912 0.024,0 0.412182,-0.592724 0.862614,-1.317162 z M 63.200625,5.8142208 c 0.208653,-1.364518 0.236466,-2.461946 0.07057,-2.784378 -0.161099,-0.31311 -0.495119,-0.31311 -0.656218,0 -0.09286,0.18048 -0.110942,0.378561 -0.108061,1.183777 0.0034,0.94554 0.08043,1.587764 0.323781,2.698787 0.100766,0.460061 0.10369,0.464588 0.1522,0.23565 0.02721,-0.128381 0.125182,-0.728607 0.217728,-1.333836 z"
       style="fill:#000000;stroke:#000000;stroke-width:0.5;stroke-miterlimit:4;stroke-dasharray:none;stroke-opacity:1" /><path
       id="path187-3"
       d="m 110.03774,35.763841 c -1.62069,-0.274229 -4.79621,-1.028266 -6.43742,-1.528592 -0.51814,-0.157955 -1.35186,-0.450237 -1.85273,-0.649516 -1.63738,-0.651468 -2.768369,-0.913903 -3.956669,-0.918112 -0.70979,-0.0025 -1.73163,-0.101267 -2.0807,-0.201084 -0.31656,-0.09052 -0.71703,-0.470969 -0.80973,-0.769251 -0.0393,-0.126453 -0.0517,-0.326342 -0.0276,-0.445769 0.10617,-0.526146 0.81017,-1.781595 1.06938,-1.907006 0.24198,-0.117084 0.52332,-0.09018 0.93463,0.08937 l 0.37349,0.16304 0.19335,-0.156605 c 0.10635,-0.08613 0.27605,-0.317771 0.37713,-0.514753 0.23794,-0.463771 0.29415,-1.288628 0.12936,-1.898615 -0.13502,-0.499784 -0.55608,-1.347291 -0.98628,-1.985159 l -0.33437,-0.495776 -0.32717,0.383918 c -0.43095,0.505684 -0.73364,0.63963 -1.6518,0.730955 -1.16391,0.11577 -2.8386,0.661918 -2.95088,0.962342 -0.0295,0.07893 -0.086,0.413608 -0.12556,0.743733 -0.0396,0.330122 -0.13941,0.989266 -0.2219,1.464766 -0.0825,0.475498 -0.14011,0.87502 -0.12805,0.887827 0.0423,0.04488 1.20213,-0.60473 1.73074,-0.969357 0.57228,-0.394748 1.29527,-1.003027 1.60151,-1.347426 0.10362,-0.116536 0.28233,-0.27361 0.39712,-0.349052 0.2625,-0.172515 0.35797,-0.09363 0.29794,0.246155 -0.0684,0.38701 -1.59525,3.551605 -2.36528,4.902235 -1.11782,1.960671 -1.24841,2.212442 -1.34917,2.600977 -0.16975,0.654644 -0.24821,0.785522 -0.5234,0.873071 -0.37869,0.120481 -0.75305,-0.01558 -1.17822,-0.428209 -0.6358,-0.617046 -1.25173,-1.781603 -1.44566,-2.733321 -0.10401,-0.51044 -0.10315,-0.538477 0.0419,-1.36718 0.16958,-0.968397 0.26815,-2.813719 0.15029,-2.813557 -0.0389,5.5e-5 -0.10812,0.04783 -0.15371,0.106164 -0.12964,0.16588 -0.81344,0.667143 -1.16817,0.856344 -0.24907,0.132848 -0.41551,0.17135 -0.74069,0.17135 -0.82015,0 -1.99088,-0.588212 -2.38853,-1.200065 -0.18387,-0.282938 -0.18841,-0.309286 -0.18841,-1.095504 0,-0.751658 0.0121,-0.831647 0.17994,-1.194714 0.21413,-0.463103 0.40857,-0.606179 0.96316,-0.708734 0.54767,-0.101276 0.93047,-0.269899 1.7459,-0.769062 0.37997,-0.232596 0.9664,-0.56721 1.30319,-0.743589 l 0.61234,-0.320687 v -0.343418 c 0,-0.685875 -0.0173,-0.714247 -0.58626,-0.961274 -1.06887,-0.464071 -1.66055,-0.96418 -2.04358,-1.727305 -0.15632,-0.311445 -0.19635,-0.471669 -0.19635,-0.785936 0,-0.573761 0.0665,-0.639731 0.69989,-0.69388 0.91018,-0.07781 2.87127,-0.831619 4.45006,-1.710513 1.81174,-1.008575 1.57301,-0.916552 2.38657,-0.919942 l 0.72225,-0.003 0.28316,-0.230412 c 0.15573,-0.126725 0.49487,-0.33545 0.75365,-0.463831 0.45922,-0.227835 0.48936,-0.233421 1.2588,-0.233421 0.78752,0 0.78879,2.67e-4 1.27586,0.25588 0.90835,0.476717 1.47148,1.272861 1.53161,2.165371 0.0493,0.731986 -0.18458,1.471608 -0.77572,2.452913 -0.70669,1.173124 -0.73976,1.533 -0.27217,2.962112 0.88436,2.702909 1.30456,4.772055 1.33323,6.565225 l 0.0127,0.796394 0.37683,0.121312 c 1.356019,0.436554 4.585909,1.124348 5.255659,1.119176 0.12946,-0.001 0.12127,-0.01689 -0.0743,-0.144067 -0.78466,-0.510259 -2.34239,-1.632379 -2.96297,-2.134383 -0.96678,-0.782063 -1.39471,-1.272986 -1.49444,-1.714417 -0.0921,-0.407758 -0.0482,-0.653545 0.20917,-1.171867 0.44117,-0.888318 1.47411,-1.760233 3.5888,-3.02935 0.55267,-0.331688 1.03787,-0.626708 1.0782,-0.655602 0.0765,-0.05479 0.20928,-1.306952 0.20928,-1.973453 0,-0.457417 -0.0464,-0.471683 -0.58668,-0.180691 -0.50633,0.272671 -1.06522,0.769506 -1.54876,1.376801 -0.22447,0.281923 -0.52897,0.664487 -0.67666,0.850139 -0.75293,0.946452 -1.63445,1.397272 -2.0817,1.064611 -0.25413,-0.189014 -1.576529,-3.350297 -1.574079,-3.762904 0.001,-0.200149 0.0421,-0.263318 0.28924,-0.446449 0.35497,-0.263056 1.722809,-2.614786 2.292049,-3.940711 l 0.2967,-0.691104 -0.62822,-0.496477 c -1.15165,-0.910137 -2.062319,-1.941039 -2.062319,-2.334606 0,-0.08378 0.045,-0.27161 0.0999,-0.417406 0.13626,-0.36161 0.450319,-0.511504 1.187609,-0.566827 1.03267,-0.07749 1.72562,-0.227235 2.19815,-0.475033 0.78993,-0.414246 0.79453,-0.421669 1.15526,-1.8643744 0.17415,-0.696511 0.45798,-1.926629 0.63075,-2.733597 0.38499,-1.798318 0.47283,-2.093919 0.71484,-2.405694 0.54647,-0.703999 1.4008,-0.528566 2.29523,0.471325 0.35032,0.391616 0.51293,0.647745 0.77157,1.21528 0.18024,0.395497 0.41694,0.86981 0.52601,1.054025 0.44245,0.747332 1.32818,1.586735 2.01441,1.909079 0.5943,0.27916 0.91352,0.531112 1.03613,0.817793 0.33877,0.7920924 -0.0718,1.7461214 -0.92359,2.1461414 -0.18275,0.08582 -0.60927,0.203076 -0.94782,0.260562 -1.64571,0.279452 -2.80093,0.715837 -4.11239,1.553463 l -0.48224,0.308008 -0.36019,0.836699 c -0.1981,0.460187 -0.69471,1.576133 -1.10357,2.479885 -0.40885,0.903753 -0.74337,1.661117 -0.74337,1.683031 0,0.113515 1.36757,-0.520273 2.01341,-0.933092 l 0.47471,-0.303434 0.0735,-0.535614 c 0.0734,-0.534797 0.30077,-1.171829 0.50301,-1.409307 0.22002,-0.258358 0.59079,-0.406591 1.01764,-0.406849 0.48216,-2.66e-4 0.8876,0.135243 1.45167,0.485275 0.30575,0.189728 0.51191,0.266812 0.79873,0.298644 0.93878,0.104196 1.34252,0.590103 1.23682,1.488519 -0.075,0.637591 -0.3717,0.938199 -1.41469,1.433461 -0.32815,0.155823 -0.60384,0.287682 -0.61266,0.29302 -0.0384,0.02329 -0.57638,2.366224 -0.61589,2.682462 l -0.0437,0.349907 0.49483,0.0013 c 0.61503,0.0015 1.26521,0.143744 1.7184,0.37611 0.40487,0.207592 1.2432,1.068801 1.44082,1.480161 0.30413,0.633044 0.0398,1.087213 -0.93729,1.610313 -0.54893,0.293883 -1.046,0.661915 -1.35029,0.999758 -0.30547,0.339146 -0.62661,0.523009 -1.01131,0.579004 l -0.28948,0.04214 0.29194,-0.407637 c 0.30464,-0.425359 0.78903,-1.267141 0.78903,-1.37116 0,-0.100447 -0.76208,10e-4 -1.13422,0.1509 -0.63827,0.257195 -0.57474,-0.10231 -0.61054,3.454576 l -0.0315,3.135441 0.30722,0.04182 c 1.18129,0.160799 2.03264,0.199763 4.5151,0.206646 2.93976,0.0082 3.45964,0.05107 4.63335,0.382464 0.80829,0.22822 1.07609,0.531261 0.85579,0.968388 -0.27123,0.53815 -1.94594,1.215232 -4.44731,1.798033 -0.8887,0.207062 -1.1803,0.245847 -1.9839,0.263884 -0.62856,0.01412 -1.14061,-0.01245 -1.5387,-0.07981 z m -5.42934,-6.659007 c 0.0956,-0.0665 0.18475,-0.232337 0.24434,-0.454455 0.15346,-0.571931 0.41546,-2.654306 0.33339,-2.649728 -0.009,5.33e-4 -0.28419,0.06011 -0.61235,0.132507 -0.34171,0.07539 -0.84592,0.132008 -1.18008,0.132509 -0.67088,0.001 -0.90779,0.09611 -1.27561,0.512084 -0.35101,0.396967 -0.4333,0.562636 -0.4333,0.8723 0,0.242626 0.0393,0.332033 0.2553,0.580872 0.26852,0.309352 1.16743,0.850252 1.60672,0.966814 0.32211,0.08547 0.87474,0.03711 1.06159,-0.0929 z m -8.341979,-6.184456 c -0.0902,-1.131186 -0.0129,-1.595088 0.40705,-2.442509 0.42998,-0.867569 0.4953,-1.095263 0.49551,-1.727374 2.5e-4,-0.890378 -0.34221,-1.509843 -0.93075,-1.683399 -0.34189,-0.100821 -0.41563,-0.09148 -0.36305,0.04601 0.0246,0.06419 0.11629,0.419851 0.20388,0.790356 0.21318,0.901768 0.18084,1.07783 -0.28709,1.56324 -0.28064,0.291131 -0.56939,0.4832 -1.36108,0.905389 -0.55268,0.294729 -1.23352,0.637858 -1.51298,0.762511 l -0.50812,0.226638 -0.0787,0.590198 c -0.0433,0.324609 -0.069,0.600117 -0.0572,0.612238 0.0119,0.01213 0.29002,-0.0077 0.61818,-0.04398 0.32815,-0.03631 0.90752,-0.0542 1.28749,-0.03975 0.57711,0.02195 0.74932,0.05474 1.04602,0.199218 0.35683,0.173742 0.78437,0.579362 0.97847,0.928281 0.0573,0.103071 0.10997,0.18082 0.11697,0.172779 0.007,-0.008 -0.0177,-0.394971 -0.0547,-0.859846 z M 108.26354,9.7517326 c 0.70036,-0.134425 0.95776,-0.209094 0.95776,-0.277847 0,-0.330152 -0.59813,-1.850277 -0.93558,-2.377719 l -0.12577,-0.196579 -0.0673,0.187857 c -0.171,0.477602 -1.02164,2.677885 -1.08023,2.794119 -0.0597,0.118364 -0.0491,0.1269574 0.11376,0.09226 0.0987,-0.02105 0.61054,-0.120985 1.13731,-0.222089 z M 79.863861,21.316512 c -0.15172,-0.230025 -0.12503,-0.711897 0.055,-0.99328 0.084,-0.13133 0.48649,-0.505934 0.89432,-0.832453 1.84542,-1.477481 3.95897,-4.173987 6.50372,-8.297567 2.02195,-3.2764324 3.00029,-5.3082624 3.00029,-6.2310934 0,-0.159307 -0.059,-0.492478 -0.13111,-0.740385 -0.12822,-0.440841 -0.49693,-2.105325 -0.49693,-2.24333 0,-0.03832 0.0777,-0.01477 0.17271,0.05232 0.56515,0.39921 1.18018,0.70985 1.90528,0.962307 1.24802,0.434524 1.96212,1.003203 2.34225,1.865277 0.15859,0.359642 0.19555,0.537974 0.2165,1.044474 0.0227,0.547545 0.008,0.649711 -0.13684,0.986737 -0.20782,0.482061 -0.72697,1.030566 -1.4539,1.536134 -0.68892,0.479131 -1.0898,0.874197 -1.71161,1.6867894 l -0.4755,0.621394 0.10259,0.228437 c 0.1713,0.381463 0.27869,0.367098 1.65592,-0.221503 0.68478,-0.292658 1.57007,-0.643487 1.96731,-0.7796194 0.64739,-0.221859 0.77433,-0.244479 1.22468,-0.218221 0.34898,0.02034 0.59412,0.07584 0.80264,0.181695 0.74993,0.3807094 1.30131,1.2071364 1.30131,1.9504704 0,0.681712 -0.23071,0.963864 -1.07457,1.314209 -0.87085,0.361554 -1.88342,0.919343 -2.31687,1.276287 -0.59603,0.490832 -0.99939,0.764233 -1.65041,1.118643 -1.2307,0.669987 -3.86318,1.859234 -3.53108,1.595194 0.4926,-0.391627 1.3176,-1.172012 1.90834,-1.805127 0.56812,-0.608871 0.64699,-0.720555 0.61236,-0.867095 -0.0672,-0.284405 -0.3353,-0.555789 -0.83904,-0.849367 -0.27904,-0.162626 -0.66147,-0.467282 -0.90765,-0.723058 l -0.42542,-0.442018 -0.61157,0.901307 c -2.02231,2.980398 -3.39588,4.899418 -3.99801,5.585634 -0.78845,0.89857 -2.06646,1.708325 -3.54838,2.248268 -0.78325,0.285378 -1.20822,0.31312 -1.35635,0.08854 z"
       style="fill:#000000;stroke:#000000;stroke-width:0.5;stroke-miterlimit:4;stroke-dasharray:none;stroke-opacity:1" /></g></g></svg>